<svg viewBox="0 0 400 261" fill="none" xmlns="http://www.w3.org/2000/svg">
<g clip-path="url(#clip0_225_15)">
<path d="M400 0H0V261H400V0Z" fill="#306998"/>
<path d="M400 141.158C368.533 140.984 337.111 140.809 327.911 122.235C318.667 103.66 331.733 66.729 323.422 43.2825C315.111 19.836 285.422 9.918 255.778 0H400V141.158Z" fill="#FFD43B"/>
<path d="M0 119.842C16.4 138.243 32.8444 156.6 56 166.083C79.1556 175.522 109.067 176.088 124.889 190.443C140.711 204.755 142.489 232.899 144.222 261H0V119.842Z" fill="#FFD43B"/>
<g filter="url(#filter0_b_225_15)">
<path d="M79.104 126.818V153H75.1538V126.818H79.104ZM88.3725 141.341V153H84.5501V133.364H88.2191V136.56H88.462C88.9137 135.52 89.6211 134.685 90.5842 134.054C91.5558 133.423 92.7788 133.108 94.2532 133.108C95.5913 133.108 96.7631 133.389 97.7688 133.952C98.7745 134.506 99.5543 135.332 100.108 136.432C100.662 137.531 100.939 138.891 100.939 140.51V153H97.1168V140.97C97.1168 139.547 96.7461 138.435 96.0046 137.634C95.2631 136.824 94.2447 136.419 92.9492 136.419C92.0629 136.419 91.2745 136.611 90.5842 136.994C89.9023 137.378 89.3612 137.94 88.9606 138.682C88.5685 139.415 88.3725 140.301 88.3725 141.341ZM115.232 133.364V136.432H104.506V133.364H115.232ZM107.382 128.659H111.205V147.234C111.205 147.976 111.316 148.534 111.537 148.909C111.759 149.276 112.044 149.527 112.394 149.663C112.752 149.791 113.14 149.855 113.557 149.855C113.864 149.855 114.132 149.834 114.363 149.791C114.593 149.749 114.772 149.714 114.9 149.689L115.59 152.847C115.368 152.932 115.053 153.017 114.644 153.102C114.235 153.196 113.723 153.247 113.11 153.256C112.104 153.273 111.167 153.094 110.297 152.719C109.428 152.344 108.725 151.764 108.188 150.98C107.651 150.196 107.382 149.212 107.382 148.027V128.659ZM119.46 153V133.364H123.155V136.483H123.359C123.717 135.426 124.348 134.595 125.251 133.99C126.163 133.376 127.195 133.07 128.345 133.07C128.584 133.07 128.865 133.078 129.189 133.095C129.521 133.112 129.781 133.134 129.969 133.159V136.815C129.815 136.773 129.543 136.726 129.151 136.675C128.759 136.615 128.366 136.585 127.974 136.585C127.071 136.585 126.266 136.777 125.558 137.161C124.859 137.536 124.305 138.06 123.896 138.733C123.487 139.398 123.283 140.156 123.283 141.009V153H119.46ZM140.845 153.396C139.004 153.396 137.397 152.974 136.025 152.131C134.653 151.287 133.588 150.107 132.829 148.589C132.071 147.072 131.691 145.3 131.691 143.271C131.691 141.234 132.071 139.453 132.829 137.928C133.588 136.402 134.653 135.217 136.025 134.374C137.397 133.53 139.004 133.108 140.845 133.108C142.686 133.108 144.292 133.53 145.664 134.374C147.037 135.217 148.102 136.402 148.86 137.928C149.619 139.453 149.998 141.234 149.998 143.271C149.998 145.3 149.619 147.072 148.86 148.589C148.102 150.107 147.037 151.287 145.664 152.131C144.292 152.974 142.686 153.396 140.845 153.396ZM140.858 150.188C142.051 150.188 143.039 149.872 143.824 149.241C144.608 148.611 145.187 147.771 145.562 146.723C145.946 145.675 146.137 144.52 146.137 143.259C146.137 142.006 145.946 140.855 145.562 139.807C145.187 138.75 144.608 137.902 143.824 137.263C143.039 136.624 142.051 136.304 140.858 136.304C139.656 136.304 138.659 136.624 137.866 137.263C137.082 137.902 136.498 138.75 136.115 139.807C135.74 140.855 135.552 142.006 135.552 143.259C135.552 144.52 135.74 145.675 136.115 146.723C136.498 147.771 137.082 148.611 137.866 149.241C138.659 149.872 139.656 150.188 140.858 150.188ZM172.958 133.364V136.432H162.233V133.364H172.958ZM165.109 128.659H168.931V147.234C168.931 147.976 169.042 148.534 169.264 148.909C169.485 149.276 169.771 149.527 170.12 149.663C170.478 149.791 170.866 149.855 171.284 149.855C171.591 149.855 171.859 149.834 172.089 149.791C172.319 149.749 172.498 149.714 172.626 149.689L173.316 152.847C173.095 152.932 172.779 153.017 172.37 153.102C171.961 153.196 171.45 153.247 170.836 153.256C169.831 153.273 168.893 153.094 168.024 152.719C167.154 152.344 166.451 151.764 165.914 150.98C165.377 150.196 165.109 149.212 165.109 148.027V128.659ZM185.247 153.396C183.406 153.396 181.8 152.974 180.428 152.131C179.055 151.287 177.99 150.107 177.232 148.589C176.473 147.072 176.094 145.3 176.094 143.271C176.094 141.234 176.473 139.453 177.232 137.928C177.99 136.402 179.055 135.217 180.428 134.374C181.8 133.53 183.406 133.108 185.247 133.108C187.088 133.108 188.695 133.53 190.067 134.374C191.439 135.217 192.504 136.402 193.263 137.928C194.021 139.453 194.401 141.234 194.401 143.271C194.401 145.3 194.021 147.072 193.263 148.589C192.504 150.107 191.439 151.287 190.067 152.131C188.695 152.974 187.088 153.396 185.247 153.396ZM185.26 150.188C186.453 150.188 187.442 149.872 188.226 149.241C189.01 148.611 189.589 147.771 189.964 146.723C190.348 145.675 190.54 144.52 190.54 143.259C190.54 142.006 190.348 140.855 189.964 139.807C189.589 138.75 189.01 137.902 188.226 137.263C187.442 136.624 186.453 136.304 185.26 136.304C184.058 136.304 183.061 136.624 182.268 137.263C181.484 137.902 180.901 138.75 180.517 139.807C180.142 140.855 179.955 142.006 179.955 143.259C179.955 144.52 180.142 145.675 180.517 146.723C180.901 147.771 181.484 148.611 182.268 149.241C183.061 149.872 184.058 150.188 185.26 150.188ZM208.501 153V126.818H217.834C219.871 126.818 221.558 127.189 222.896 127.93C224.234 128.672 225.236 129.686 225.901 130.973C226.565 132.251 226.898 133.692 226.898 135.294C226.898 136.905 226.561 138.354 225.888 139.641C225.223 140.919 224.217 141.933 222.871 142.683C221.533 143.425 219.849 143.795 217.821 143.795H211.403V140.446H217.463C218.75 140.446 219.794 140.224 220.595 139.781C221.396 139.33 221.984 138.716 222.359 137.94C222.734 137.165 222.922 136.283 222.922 135.294C222.922 134.305 222.734 133.428 222.359 132.661C221.984 131.893 221.392 131.293 220.582 130.858C219.781 130.423 218.724 130.206 217.412 130.206H212.452V153H208.501ZM233.638 160.364C233.067 160.364 232.547 160.317 232.078 160.223C231.61 160.138 231.26 160.044 231.03 159.942L231.951 156.81C232.65 156.997 233.272 157.078 233.817 157.053C234.363 157.027 234.844 156.822 235.262 156.439C235.688 156.055 236.063 155.429 236.387 154.56L236.86 153.256L229.675 133.364H233.766L238.739 148.602H238.944L243.917 133.364H248.02L239.928 155.621C239.553 156.643 239.076 157.509 238.496 158.216C237.917 158.932 237.226 159.469 236.425 159.827C235.624 160.185 234.695 160.364 233.638 160.364ZM260.779 133.364V136.432H250.053V133.364H260.779ZM252.929 128.659H256.752V147.234C256.752 147.976 256.863 148.534 257.084 148.909C257.306 149.276 257.591 149.527 257.941 149.663C258.299 149.791 258.686 149.855 259.104 149.855C259.411 149.855 259.679 149.834 259.909 149.791C260.14 149.749 260.319 149.714 260.446 149.689L261.137 152.847C260.915 152.932 260.6 153.017 260.191 153.102C259.782 153.196 259.27 153.247 258.657 153.256C257.651 153.273 256.713 153.094 255.844 152.719C254.975 152.344 254.272 151.764 253.735 150.98C253.198 150.196 252.929 149.212 252.929 148.027V128.659ZM269.251 141.341V153H265.429V126.818H269.2V136.56H269.443C269.903 135.503 270.607 134.663 271.553 134.041C272.499 133.419 273.734 133.108 275.26 133.108C276.607 133.108 277.783 133.385 278.788 133.939C279.803 134.493 280.587 135.32 281.141 136.419C281.703 137.51 281.984 138.874 281.984 140.51V153H278.162V140.97C278.162 139.53 277.791 138.413 277.05 137.621C276.308 136.82 275.277 136.419 273.956 136.419C273.053 136.419 272.243 136.611 271.527 136.994C270.82 137.378 270.261 137.94 269.852 138.682C269.452 139.415 269.251 140.301 269.251 141.341ZM295.357 153.396C293.516 153.396 291.909 152.974 290.537 152.131C289.165 151.287 288.099 150.107 287.341 148.589C286.582 147.072 286.203 145.3 286.203 143.271C286.203 141.234 286.582 139.453 287.341 137.928C288.099 136.402 289.165 135.217 290.537 134.374C291.909 133.53 293.516 133.108 295.357 133.108C297.197 133.108 298.804 133.53 300.176 134.374C301.548 135.217 302.614 136.402 303.372 137.928C304.131 139.453 304.51 141.234 304.51 143.271C304.51 145.3 304.131 147.072 303.372 148.589C302.614 150.107 301.548 151.287 300.176 152.131C298.804 152.974 297.197 153.396 295.357 153.396ZM295.369 150.188C296.563 150.188 297.551 149.872 298.335 149.241C299.119 148.611 299.699 147.771 300.074 146.723C300.457 145.675 300.649 144.52 300.649 143.259C300.649 142.006 300.457 140.855 300.074 139.807C299.699 138.75 299.119 137.902 298.335 137.263C297.551 136.624 296.563 136.304 295.369 136.304C294.168 136.304 293.17 136.624 292.378 137.263C291.594 137.902 291.01 138.75 290.626 139.807C290.251 140.855 290.064 142.006 290.064 143.259C290.064 144.52 290.251 145.675 290.626 146.723C291.01 147.771 291.594 148.611 292.378 149.241C293.17 149.872 294.168 150.188 295.369 150.188ZM312.599 141.341V153H308.777V133.364H312.446V136.56H312.689C313.14 135.52 313.848 134.685 314.811 134.054C315.782 133.423 317.005 133.108 318.48 133.108C319.818 133.108 320.99 133.389 321.995 133.952C323.001 134.506 323.781 135.332 324.335 136.432C324.889 137.531 325.166 138.891 325.166 140.51V153H321.343V140.97C321.343 139.547 320.973 138.435 320.231 137.634C319.49 136.824 318.471 136.419 317.176 136.419C316.289 136.419 315.501 136.611 314.811 136.994C314.129 137.378 313.588 137.94 313.187 138.682C312.795 139.415 312.599 140.301 312.599 141.341Z" fill="#FFD43B"/>
</g>
</g>
<defs>
<filter id="filter0_b_225_15" x="46.1537" y="97.8182" width="308.012" height="91.5455" filterUnits="userSpaceOnUse" color-interpolation-filters="sRGB">
<feFlood flood-opacity="0" result="BackgroundImageFix"/>
<feGaussianBlur in="BackgroundImageFix" stdDeviation="14.5"/>
<feComposite in2="SourceAlpha" operator="in" result="effect1_backgroundBlur_225_15"/>
<feBlend mode="normal" in="SourceGraphic" in2="effect1_backgroundBlur_225_15" result="shape"/>
</filter>
<clipPath id="clip0_225_15">
<rect width="400" height="261" rx="8" fill="white"/>
</clipPath>
</defs>
</svg>
