<svg viewBox="0 0 400 261" fill="none" xmlns="http://www.w3.org/2000/svg">
<g clip-path="url(#clip0_894_97)">
<path d="M400 0H0V261H400V0Z" fill="#000203"/>
<path d="M400 117.624C383.689 116.493 367.422 115.362 354 108.663C340.578 101.964 330.044 89.697 320.178 78.126C310.311 66.555 301.067 55.68 294.489 42.7605C287.867 29.8845 283.822 14.9205 279.822 0H400V117.624Z" fill="#E7183F"/>
<path d="M0 143.376C12.4 152.293 24.8 161.167 40.4889 165.343C56.1333 169.519 75.0667 168.954 84.9778 177.828C94.8889 186.658 95.8222 204.928 100.178 220.371C104.578 235.813 112.356 248.428 120.178 261H0V143.376Z" fill="#E7183F"/>
<g filter="url(#filter0_b_894_97)">
<path d="M76.8604 125.332H72.8718C72.7184 124.48 72.4329 123.73 72.0153 123.082C71.5977 122.435 71.0863 121.885 70.4812 121.433C69.8761 120.982 69.1985 120.641 68.4485 120.411C67.707 120.18 66.9187 120.065 66.0835 120.065C64.5749 120.065 63.2241 120.445 62.0309 121.203C60.8462 121.962 59.9087 123.074 59.2184 124.54C58.5366 126.006 58.1957 127.795 58.1957 129.909C58.1957 132.04 58.5366 133.838 59.2184 135.304C59.9087 136.77 60.8505 137.878 62.0437 138.628C63.2369 139.378 64.5792 139.753 66.0707 139.753C66.8974 139.753 67.6815 139.642 68.4229 139.42C69.1729 139.19 69.8505 138.854 70.4556 138.411C71.0607 137.967 71.5721 137.426 71.9897 136.787C72.4158 136.139 72.7099 135.398 72.8718 134.562L76.8604 134.575C76.6474 135.862 76.234 137.047 75.6204 138.129C75.0153 139.203 74.2354 140.132 73.2809 140.916C72.3349 141.692 71.2525 142.293 70.0337 142.719C68.815 143.145 67.4854 143.358 66.0451 143.358C63.7781 143.358 61.7582 142.821 59.9854 141.747C58.2127 140.665 56.815 139.118 55.7923 137.107C54.7781 135.095 54.271 132.696 54.271 129.909C54.271 127.114 54.7823 124.714 55.805 122.712C56.8278 120.7 58.2255 119.158 59.9982 118.084C61.771 117.001 63.7866 116.46 66.0451 116.46C67.4343 116.46 68.7298 116.661 69.9315 117.061C71.1417 117.453 72.2283 118.033 73.1914 118.8C74.1545 119.558 74.9514 120.487 75.582 121.587C76.2127 122.678 76.6389 123.926 76.8604 125.332ZM104.33 129.909C104.33 132.705 103.819 135.108 102.796 137.119C101.773 139.122 100.371 140.665 98.5902 141.747C96.8175 142.821 94.8018 143.358 92.5433 143.358C90.2763 143.358 88.2521 142.821 86.4709 141.747C84.6982 140.665 83.3004 139.118 82.2777 137.107C81.255 135.095 80.7436 132.696 80.7436 129.909C80.7436 127.114 81.255 124.714 82.2777 122.712C83.3004 120.7 84.6982 119.158 86.4709 118.084C88.2521 117.001 90.2763 116.46 92.5433 116.46C94.8018 116.46 96.8175 117.001 98.5902 118.084C100.371 119.158 101.773 120.7 102.796 122.712C103.819 124.714 104.33 127.114 104.33 129.909ZM100.418 129.909C100.418 127.778 100.073 125.984 99.3828 124.527C98.701 123.061 97.7635 121.953 96.5703 121.203C95.3857 120.445 94.0433 120.065 92.5433 120.065C91.0348 120.065 89.6882 120.445 88.5036 121.203C87.3189 121.953 86.3814 123.061 85.6911 124.527C85.0092 125.984 84.6683 127.778 84.6683 129.909C84.6683 132.04 85.0092 133.838 85.6911 135.304C86.3814 136.761 87.3189 137.869 88.5036 138.628C89.6882 139.378 91.0348 139.753 92.5433 139.753C94.0433 139.753 95.3857 139.378 96.5703 138.628C97.7635 137.869 98.701 136.761 99.3828 135.304C100.073 133.838 100.418 132.04 100.418 129.909ZM109.255 116.818H114.049L122.385 137.17H122.691L131.027 116.818H135.821V143H132.062V124.054H131.819L124.098 142.962H120.978L113.257 124.041H113.014V143H109.255V116.818ZM145.514 116.818V143H141.564V116.818H145.514ZM172.399 116.818V143H168.768L155.46 123.798H155.217V143H151.267V116.818H154.923L168.244 136.045H168.487V116.818H172.399ZM195.88 125.089C195.633 124.314 195.301 123.619 194.883 123.006C194.474 122.384 193.984 121.855 193.413 121.42C192.842 120.977 192.19 120.641 191.457 120.411C190.733 120.18 189.936 120.065 189.066 120.065C187.592 120.065 186.262 120.445 185.078 121.203C183.893 121.962 182.956 123.074 182.265 124.54C181.583 125.997 181.243 127.783 181.243 129.896C181.243 132.018 181.588 133.812 182.278 135.278C182.968 136.744 183.914 137.857 185.116 138.615C186.318 139.374 187.686 139.753 189.22 139.753C190.643 139.753 191.883 139.463 192.94 138.884C194.005 138.304 194.828 137.486 195.407 136.429C195.995 135.364 196.289 134.111 196.289 132.67L197.312 132.862H189.821V129.602H200.112V132.581C200.112 134.78 199.643 136.689 198.706 138.308C197.777 139.919 196.49 141.163 194.845 142.041C193.208 142.919 191.333 143.358 189.22 143.358C186.85 143.358 184.771 142.812 182.981 141.722C181.2 140.631 179.811 139.084 178.814 137.081C177.816 135.07 177.318 132.683 177.318 129.922C177.318 127.834 177.608 125.959 178.187 124.297C178.767 122.635 179.581 121.224 180.629 120.065C181.686 118.898 182.926 118.007 184.349 117.393C185.781 116.771 187.345 116.46 189.041 116.46C190.456 116.46 191.772 116.669 192.991 117.087C194.218 117.504 195.309 118.097 196.264 118.864C197.227 119.631 198.024 120.543 198.654 121.599C199.285 122.648 199.711 123.811 199.933 125.089H195.88ZM228.934 123.696C228.797 122.486 228.235 121.548 227.246 120.884C226.257 120.21 225.013 119.874 223.513 119.874C222.439 119.874 221.51 120.044 220.726 120.385C219.942 120.717 219.333 121.178 218.898 121.766C218.472 122.345 218.259 123.006 218.259 123.747C218.259 124.369 218.404 124.906 218.694 125.358C218.992 125.81 219.38 126.189 219.857 126.496C220.343 126.794 220.863 127.045 221.417 127.25C221.971 127.446 222.503 127.608 223.015 127.736L225.571 128.401C226.407 128.605 227.263 128.882 228.141 129.232C229.019 129.581 229.833 130.041 230.583 130.612C231.333 131.183 231.938 131.891 232.398 132.734C232.867 133.578 233.101 134.588 233.101 135.764C233.101 137.247 232.718 138.564 231.951 139.714C231.192 140.865 230.088 141.773 228.64 142.438C227.199 143.102 225.456 143.435 223.411 143.435C221.451 143.435 219.755 143.124 218.323 142.501C216.891 141.879 215.77 140.997 214.961 139.855C214.151 138.705 213.703 137.341 213.618 135.764H217.581C217.658 136.71 217.965 137.499 218.502 138.129C219.047 138.751 219.742 139.216 220.586 139.523C221.438 139.821 222.371 139.97 223.385 139.97C224.502 139.97 225.495 139.795 226.364 139.446C227.242 139.088 227.932 138.594 228.435 137.963C228.938 137.324 229.189 136.578 229.189 135.726C229.189 134.95 228.968 134.315 228.525 133.821C228.09 133.327 227.498 132.918 226.748 132.594C226.006 132.27 225.167 131.984 224.229 131.737L221.135 130.893C219.039 130.322 217.377 129.483 216.15 128.375C214.931 127.267 214.321 125.801 214.321 123.977C214.321 122.469 214.73 121.152 215.549 120.027C216.367 118.902 217.475 118.028 218.873 117.406C220.27 116.776 221.847 116.46 223.603 116.46C225.375 116.46 226.939 116.771 228.294 117.393C229.658 118.016 230.732 118.872 231.516 119.963C232.3 121.045 232.709 122.29 232.743 123.696H228.934ZM260.565 129.909C260.565 132.705 260.053 135.108 259.031 137.119C258.008 139.122 256.606 140.665 254.825 141.747C253.052 142.821 251.036 143.358 248.778 143.358C246.511 143.358 244.487 142.821 242.705 141.747C240.933 140.665 239.535 139.118 238.512 137.107C237.489 135.095 236.978 132.696 236.978 129.909C236.978 127.114 237.489 124.714 238.512 122.712C239.535 120.7 240.933 119.158 242.705 118.084C244.487 117.001 246.511 116.46 248.778 116.46C251.036 116.46 253.052 117.001 254.825 118.084C256.606 119.158 258.008 120.7 259.031 122.712C260.053 124.714 260.565 127.114 260.565 129.909ZM256.653 129.909C256.653 127.778 256.308 125.984 255.617 124.527C254.935 123.061 253.998 121.953 252.805 121.203C251.62 120.445 250.278 120.065 248.778 120.065C247.269 120.065 245.923 120.445 244.738 121.203C243.553 121.953 242.616 123.061 241.925 124.527C241.244 125.984 240.903 127.778 240.903 129.909C240.903 132.04 241.244 133.838 241.925 135.304C242.616 136.761 243.553 137.869 244.738 138.628C245.923 139.378 247.269 139.753 248.778 139.753C250.278 139.753 251.62 139.378 252.805 138.628C253.998 137.869 254.935 136.761 255.617 135.304C256.308 133.838 256.653 132.04 256.653 129.909ZM288.233 129.909C288.233 132.705 287.721 135.108 286.699 137.119C285.676 139.122 284.274 140.665 282.493 141.747C280.72 142.821 278.704 143.358 276.446 143.358C274.179 143.358 272.154 142.821 270.373 141.747C268.6 140.665 267.203 139.118 266.18 137.107C265.157 135.095 264.646 132.696 264.646 129.909C264.646 127.114 265.157 124.714 266.18 122.712C267.203 120.7 268.6 119.158 270.373 118.084C272.154 117.001 274.179 116.46 276.446 116.46C278.704 116.46 280.72 117.001 282.493 118.084C284.274 119.158 285.676 120.7 286.699 122.712C287.721 124.714 288.233 127.114 288.233 129.909ZM284.321 129.909C284.321 127.778 283.975 125.984 283.285 124.527C282.603 123.061 281.666 121.953 280.473 121.203C279.288 120.445 277.946 120.065 276.446 120.065C274.937 120.065 273.591 120.445 272.406 121.203C271.221 121.953 270.284 123.061 269.593 124.527C268.912 125.984 268.571 127.778 268.571 129.909C268.571 132.04 268.912 133.838 269.593 135.304C270.284 136.761 271.221 137.869 272.406 138.628C273.591 139.378 274.937 139.753 276.446 139.753C277.946 139.753 279.288 139.378 280.473 138.628C281.666 137.869 282.603 136.761 283.285 135.304C283.975 133.838 284.321 132.04 284.321 129.909ZM314.29 116.818V143H310.659L297.351 123.798H297.108V143H293.158V116.818H296.814L310.135 136.045H310.378V116.818H314.29ZM322.264 143.243C321.565 143.243 320.964 142.996 320.461 142.501C319.958 141.999 319.707 141.393 319.707 140.686C319.707 139.987 319.958 139.391 320.461 138.896C320.964 138.393 321.565 138.142 322.264 138.142C322.963 138.142 323.564 138.393 324.066 138.896C324.569 139.391 324.821 139.987 324.821 140.686C324.821 141.155 324.701 141.585 324.463 141.977C324.233 142.361 323.926 142.668 323.542 142.898C323.159 143.128 322.733 143.243 322.264 143.243ZM332.459 143.243C331.76 143.243 331.159 142.996 330.657 142.501C330.154 141.999 329.902 141.393 329.902 140.686C329.902 139.987 330.154 139.391 330.657 138.896C331.159 138.393 331.76 138.142 332.459 138.142C333.158 138.142 333.759 138.393 334.262 138.896C334.765 139.391 335.016 139.987 335.016 140.686C335.016 141.155 334.897 141.585 334.658 141.977C334.428 142.361 334.121 142.668 333.738 142.898C333.354 143.128 332.928 143.243 332.459 143.243ZM342.654 143.243C341.956 143.243 341.355 142.996 340.852 142.501C340.349 141.999 340.098 141.393 340.098 140.686C340.098 139.987 340.349 139.391 340.852 138.896C341.355 138.393 341.956 138.142 342.654 138.142C343.353 138.142 343.954 138.393 344.457 138.896C344.96 139.391 345.211 139.987 345.211 140.686C345.211 141.155 345.092 141.585 344.853 141.977C344.623 142.361 344.316 142.668 343.933 142.898C343.549 143.128 343.123 143.243 342.654 143.243Z" fill="#E7183F"/>
</g>
</g>
<defs>
<filter id="filter0_b_106_171" x="31.0092" y="97.8182" width="340.835" height="84.5781" filterUnits="userSpaceOnUse" color-interpolation-filters="sRGB">
<feFlood flood-opacity="0" result="BackgroundImageFix"/>
<feGaussianBlur in="BackgroundImageFix" stdDeviation="14.5"/>
<feComposite in2="SourceAlpha" operator="in" result="effect1_backgroundBlur_894_97"/>
<feBlend mode="normal" in="SourceGraphic" in2="effect1_backgroundBlur_894_97" result="shape"/>
</filter>
<clipPath id="clip0_894_97">
<rect x="6.10352e-05" width="400" height="261" rx="8" fill="white"/>
</clipPath>
</defs>
</svg>
