<svg viewBox="0 0 400 261" fill="none" xmlns="http://www.w3.org/2000/svg">
<g clip-path="url(#clip0_106_171)">
<path d="M400 0H0V261H400V0Z" fill="#323330"/>
<path d="M400 117.624C386 109.315 371.955 101.007 360.533 93.2205C349.111 85.4775 340.311 78.213 327.422 71.0355C314.533 63.9015 297.555 56.8545 288.978 45.0225C280.355 33.1905 280.089 16.5735 279.822 0H400V117.624Z" fill="#FC6A2B"/>
<path d="M0 143.376C17.4222 143.376 34.8444 143.419 46 152.337C57.1555 161.211 62.0889 179.002 71.9555 190.573C81.8222 202.144 96.6666 207.495 105.511 218.239C114.4 228.94 117.289 244.948 120.178 261H0V143.376Z" fill="#FC6A2B"/>
<path d="M270.113 238.364L273.352 247.841H273.482L276.721 238.364H278.619L274.431 250H272.403L268.215 238.364H270.113ZM280.163 250V241.273H281.862V250H280.163ZM281.021 239.926C280.725 239.926 280.472 239.828 280.259 239.631C280.051 239.43 279.947 239.191 279.947 238.915C279.947 238.634 280.051 238.396 280.259 238.199C280.472 237.998 280.725 237.898 281.021 237.898C281.316 237.898 281.568 237.998 281.776 238.199C281.989 238.396 282.095 238.634 282.095 238.915C282.095 239.191 281.989 239.43 281.776 239.631C281.568 239.828 281.316 239.926 281.021 239.926ZM287.909 250.176C287.049 250.176 286.308 249.992 285.687 249.625C285.07 249.254 284.592 248.733 284.255 248.062C283.922 247.388 283.755 246.598 283.755 245.693C283.755 244.799 283.922 244.011 284.255 243.33C284.592 242.648 285.062 242.116 285.664 241.733C286.27 241.35 286.979 241.159 287.789 241.159C288.282 241.159 288.759 241.241 289.221 241.403C289.683 241.566 290.098 241.822 290.465 242.17C290.833 242.519 291.123 242.972 291.335 243.528C291.547 244.081 291.653 244.754 291.653 245.545V246.148H284.715V244.875H289.988C289.988 244.428 289.897 244.032 289.715 243.688C289.534 243.339 289.278 243.064 288.948 242.864C288.623 242.663 288.24 242.562 287.801 242.562C287.323 242.562 286.907 242.68 286.551 242.915C286.198 243.146 285.926 243.449 285.732 243.824C285.543 244.195 285.448 244.598 285.448 245.034V246.028C285.448 246.612 285.551 247.108 285.755 247.517C285.964 247.926 286.253 248.239 286.625 248.455C286.996 248.667 287.429 248.773 287.926 248.773C288.248 248.773 288.541 248.727 288.806 248.636C289.071 248.542 289.301 248.402 289.494 248.216C289.687 248.03 289.835 247.801 289.937 247.528L291.545 247.818C291.416 248.292 291.185 248.706 290.852 249.062C290.522 249.415 290.107 249.689 289.607 249.886C289.111 250.08 288.545 250.176 287.909 250.176ZM295.414 250L292.846 241.273H294.602L296.312 247.682H296.397L298.113 241.273H299.869L301.573 247.653H301.659L303.357 241.273H305.113L302.551 250H300.818L299.045 243.699H298.914L297.142 250H295.414ZM320.761 242.148H318.988C318.92 241.769 318.793 241.436 318.607 241.148C318.422 240.86 318.195 240.616 317.926 240.415C317.657 240.214 317.356 240.062 317.022 239.96C316.693 239.858 316.342 239.807 315.971 239.807C315.301 239.807 314.7 239.975 314.17 240.312C313.643 240.65 313.227 241.144 312.92 241.795C312.617 242.447 312.465 243.242 312.465 244.182C312.465 245.129 312.617 245.928 312.92 246.58C313.227 247.231 313.645 247.723 314.176 248.057C314.706 248.39 315.303 248.557 315.965 248.557C316.333 248.557 316.681 248.508 317.011 248.409C317.344 248.307 317.645 248.157 317.914 247.96C318.183 247.763 318.41 247.523 318.596 247.239C318.785 246.951 318.916 246.621 318.988 246.25L320.761 246.256C320.666 246.828 320.482 247.354 320.21 247.835C319.941 248.312 319.594 248.725 319.17 249.074C318.75 249.419 318.268 249.686 317.727 249.875C317.185 250.064 316.594 250.159 315.954 250.159C314.946 250.159 314.049 249.92 313.261 249.443C312.473 248.962 311.852 248.275 311.397 247.381C310.946 246.487 310.721 245.42 310.721 244.182C310.721 242.939 310.948 241.873 311.403 240.983C311.857 240.089 312.479 239.403 313.267 238.926C314.054 238.445 314.95 238.205 315.954 238.205C316.571 238.205 317.147 238.294 317.681 238.472C318.219 238.646 318.702 238.903 319.13 239.244C319.558 239.581 319.912 239.994 320.193 240.483C320.473 240.968 320.662 241.523 320.761 242.148ZM326.401 250.176C325.583 250.176 324.869 249.989 324.259 249.614C323.65 249.239 323.176 248.714 322.839 248.04C322.502 247.366 322.333 246.578 322.333 245.676C322.333 244.771 322.502 243.979 322.839 243.301C323.176 242.623 323.65 242.097 324.259 241.722C324.869 241.347 325.583 241.159 326.401 241.159C327.22 241.159 327.934 241.347 328.544 241.722C329.153 242.097 329.627 242.623 329.964 243.301C330.301 243.979 330.47 244.771 330.47 245.676C330.47 246.578 330.301 247.366 329.964 248.04C329.627 248.714 329.153 249.239 328.544 249.614C327.934 249.989 327.22 250.176 326.401 250.176ZM326.407 248.75C326.937 248.75 327.377 248.61 327.725 248.33C328.074 248.049 328.331 247.676 328.498 247.21C328.669 246.744 328.754 246.231 328.754 245.67C328.754 245.114 328.669 244.602 328.498 244.136C328.331 243.667 328.074 243.29 327.725 243.006C327.377 242.722 326.937 242.58 326.407 242.58C325.873 242.58 325.43 242.722 325.078 243.006C324.729 243.29 324.47 243.667 324.299 244.136C324.133 244.602 324.049 245.114 324.049 245.67C324.049 246.231 324.133 246.744 324.299 247.21C324.47 247.676 324.729 248.049 325.078 248.33C325.43 248.61 325.873 248.75 326.407 248.75ZM337.894 246.381V241.273H339.599V250H337.928V248.489H337.838C337.637 248.955 337.315 249.343 336.872 249.653C336.432 249.96 335.885 250.114 335.23 250.114C334.669 250.114 334.173 249.991 333.741 249.744C333.313 249.494 332.976 249.125 332.73 248.636C332.487 248.148 332.366 247.544 332.366 246.824V241.273H334.065V246.619C334.065 247.214 334.23 247.687 334.559 248.04C334.889 248.392 335.317 248.568 335.843 248.568C336.161 248.568 336.478 248.489 336.792 248.33C337.11 248.17 337.374 247.93 337.582 247.608C337.794 247.286 337.898 246.877 337.894 246.381ZM341.882 250V241.273H343.524V242.659H343.615C343.774 242.189 344.054 241.82 344.455 241.551C344.861 241.278 345.319 241.142 345.83 241.142C345.937 241.142 346.062 241.146 346.205 241.153C346.353 241.161 346.469 241.17 346.552 241.182V242.807C346.484 242.788 346.363 242.767 346.188 242.744C346.014 242.718 345.84 242.705 345.666 242.705C345.264 242.705 344.906 242.79 344.592 242.96C344.281 243.127 344.035 243.36 343.853 243.659C343.671 243.955 343.58 244.292 343.58 244.67V250H341.882ZM354.562 243.403L353.022 243.676C352.958 243.479 352.856 243.292 352.715 243.114C352.579 242.936 352.393 242.79 352.159 242.676C351.924 242.562 351.63 242.506 351.278 242.506C350.797 242.506 350.395 242.614 350.073 242.83C349.751 243.042 349.59 243.316 349.59 243.653C349.59 243.945 349.698 244.18 349.914 244.358C350.13 244.536 350.479 244.682 350.96 244.795L352.346 245.114C353.149 245.299 353.748 245.585 354.142 245.972C354.535 246.358 354.732 246.86 354.732 247.477C354.732 248 354.581 248.466 354.278 248.875C353.979 249.28 353.56 249.598 353.022 249.83C352.488 250.061 351.869 250.176 351.164 250.176C350.187 250.176 349.39 249.968 348.772 249.551C348.155 249.131 347.776 248.534 347.636 247.761L349.278 247.511C349.38 247.939 349.59 248.263 349.909 248.483C350.227 248.699 350.642 248.807 351.153 248.807C351.71 248.807 352.155 248.691 352.488 248.46C352.821 248.225 352.988 247.939 352.988 247.602C352.988 247.33 352.886 247.1 352.681 246.915C352.481 246.729 352.172 246.589 351.755 246.494L350.278 246.17C349.464 245.985 348.861 245.689 348.471 245.284C348.085 244.879 347.892 244.366 347.892 243.744C347.892 243.229 348.035 242.778 348.323 242.392C348.611 242.006 349.009 241.705 349.517 241.489C350.024 241.269 350.606 241.159 351.261 241.159C352.204 241.159 352.946 241.364 353.488 241.773C354.03 242.178 354.388 242.722 354.562 243.403ZM360.362 250.176C359.502 250.176 358.761 249.992 358.14 249.625C357.523 249.254 357.045 248.733 356.708 248.062C356.375 247.388 356.208 246.598 356.208 245.693C356.208 244.799 356.375 244.011 356.708 243.33C357.045 242.648 357.515 242.116 358.117 241.733C358.723 241.35 359.432 241.159 360.242 241.159C360.735 241.159 361.212 241.241 361.674 241.403C362.136 241.566 362.551 241.822 362.919 242.17C363.286 242.519 363.576 242.972 363.788 243.528C364 244.081 364.106 244.754 364.106 245.545V246.148H357.169V244.875H362.441C362.441 244.428 362.35 244.032 362.169 243.688C361.987 243.339 361.731 243.064 361.401 242.864C361.076 242.663 360.693 242.562 360.254 242.562C359.776 242.562 359.36 242.68 359.004 242.915C358.651 243.146 358.379 243.449 358.186 243.824C357.996 244.195 357.901 244.598 357.901 245.034V246.028C357.901 246.612 358.004 247.108 358.208 247.517C358.417 247.926 358.706 248.239 359.078 248.455C359.449 248.667 359.883 248.773 360.379 248.773C360.701 248.773 360.994 248.727 361.259 248.636C361.525 248.542 361.754 248.402 361.947 248.216C362.14 248.03 362.288 247.801 362.39 247.528L363.998 247.818C363.869 248.292 363.638 248.706 363.305 249.062C362.975 249.415 362.561 249.689 362.061 249.886C361.564 250.08 360.998 250.176 360.362 250.176ZM383.657 250.21L382.634 249.193L386.186 245.648H371.083V244.17H386.186L382.634 240.619L383.657 239.608L388.958 244.909L383.657 250.21Z" fill="#FC6A2B"/>
<g filter="url(#filter0_b_106_171)">
<path d="M63.9595 126.818V153H60.0092V126.818H63.9595ZM73.228 141.341V153H69.4055V133.364H73.0746V136.56H73.3175C73.7692 135.52 74.4766 134.685 75.4396 134.054C76.4112 133.423 77.6342 133.108 79.1087 133.108C80.4467 133.108 81.6186 133.389 82.6243 133.952C83.63 134.506 84.4098 135.332 84.9638 136.432C85.5178 137.531 85.7947 138.891 85.7947 140.51V153H81.9723V140.97C81.9723 139.547 81.6016 138.435 80.8601 137.634C80.1186 136.824 79.1001 136.419 77.8047 136.419C76.9183 136.419 76.13 136.611 75.4396 136.994C74.7578 137.378 74.2166 137.94 73.8161 138.682C73.424 139.415 73.228 140.301 73.228 141.341ZM100.087 133.364V136.432H89.3615V133.364H100.087ZM92.2379 128.659H96.0604V147.234C96.0604 147.976 96.1712 148.534 96.3928 148.909C96.6143 149.276 96.8999 149.527 97.2493 149.663C97.6072 149.791 97.995 149.855 98.4126 149.855C98.7195 149.855 98.9879 149.834 99.218 149.791C99.4482 149.749 99.6271 149.714 99.755 149.689L100.445 152.847C100.224 152.932 99.9084 153.017 99.4993 153.102C99.0902 153.196 98.5788 153.247 97.9652 153.256C96.9595 153.273 96.022 153.094 95.1527 152.719C94.2834 152.344 93.5803 151.764 93.0433 150.98C92.5064 150.196 92.2379 149.212 92.2379 148.027V128.659ZM104.316 153V133.364H108.01V136.483H108.215C108.573 135.426 109.203 134.595 110.107 133.99C111.019 133.376 112.05 133.07 113.201 133.07C113.439 133.07 113.721 133.078 114.044 133.095C114.377 133.112 114.637 133.134 114.824 133.159V136.815C114.671 136.773 114.398 136.726 114.006 136.675C113.614 136.615 113.222 136.585 112.83 136.585C111.926 136.585 111.121 136.777 110.414 137.161C109.715 137.536 109.161 138.06 108.752 138.733C108.343 139.398 108.138 140.156 108.138 141.009V153H104.316ZM125.7 153.396C123.859 153.396 122.253 152.974 120.881 152.131C119.509 151.287 118.443 150.107 117.685 148.589C116.926 147.072 116.547 145.3 116.547 143.271C116.547 141.234 116.926 139.453 117.685 137.928C118.443 136.402 119.509 135.217 120.881 134.374C122.253 133.53 123.859 133.108 125.7 133.108C127.541 133.108 129.148 133.53 130.52 134.374C131.892 135.217 132.957 136.402 133.716 137.928C134.474 139.453 134.854 141.234 134.854 143.271C134.854 145.3 134.474 147.072 133.716 148.589C132.957 150.107 131.892 151.287 130.52 152.131C129.148 152.974 127.541 153.396 125.7 153.396ZM125.713 150.188C126.906 150.188 127.895 149.872 128.679 149.241C129.463 148.611 130.043 147.771 130.418 146.723C130.801 145.675 130.993 144.52 130.993 143.259C130.993 142.006 130.801 140.855 130.418 139.807C130.043 138.75 129.463 137.902 128.679 137.263C127.895 136.624 126.906 136.304 125.713 136.304C124.511 136.304 123.514 136.624 122.722 137.263C121.938 137.902 121.354 138.75 120.97 139.807C120.595 140.855 120.408 142.006 120.408 143.259C120.408 144.52 120.595 145.675 120.97 146.723C121.354 147.771 121.938 148.611 122.722 149.241C123.514 149.872 124.511 150.188 125.713 150.188ZM157.814 133.364V136.432H147.088V133.364H157.814ZM149.964 128.659H153.787V147.234C153.787 147.976 153.898 148.534 154.119 148.909C154.341 149.276 154.626 149.527 154.976 149.663C155.334 149.791 155.722 149.855 156.139 149.855C156.446 149.855 156.714 149.834 156.945 149.791C157.175 149.749 157.354 149.714 157.482 149.689L158.172 152.847C157.95 152.932 157.635 153.017 157.226 153.102C156.817 153.196 156.305 153.247 155.692 153.256C154.686 153.273 153.749 153.094 152.879 152.719C152.01 152.344 151.307 151.764 150.77 150.98C150.233 150.196 149.964 149.212 149.964 148.027V128.659ZM170.103 153.396C168.262 153.396 166.655 152.974 165.283 152.131C163.911 151.287 162.846 150.107 162.087 148.589C161.328 147.072 160.949 145.3 160.949 143.271C160.949 141.234 161.328 139.453 162.087 137.928C162.846 136.402 163.911 135.217 165.283 134.374C166.655 133.53 168.262 133.108 170.103 133.108C171.944 133.108 173.55 133.53 174.922 134.374C176.294 135.217 177.36 136.402 178.118 137.928C178.877 139.453 179.256 141.234 179.256 143.271C179.256 145.3 178.877 147.072 178.118 148.589C177.36 150.107 176.294 151.287 174.922 152.131C173.55 152.974 171.944 153.396 170.103 153.396ZM170.115 150.188C171.309 150.188 172.297 149.872 173.081 149.241C173.865 148.611 174.445 147.771 174.82 146.723C175.203 145.675 175.395 144.52 175.395 143.259C175.395 142.006 175.203 140.855 174.82 139.807C174.445 138.75 173.865 137.902 173.081 137.263C172.297 136.624 171.309 136.304 170.115 136.304C168.914 136.304 167.917 136.624 167.124 137.263C166.34 137.902 165.756 138.75 165.373 139.807C164.998 140.855 164.81 142.006 164.81 143.259C164.81 144.52 164.998 145.675 165.373 146.723C165.756 147.771 166.34 148.611 167.124 149.241C167.917 149.872 168.914 150.188 170.115 150.188ZM198.483 153L191.222 126.818H195.377L200.478 147.094H200.721L206.026 126.818H210.142L215.448 147.107H215.691L220.779 126.818H224.946L217.672 153H213.696L208.186 133.389H207.982L202.472 153H198.483ZM234.771 153.396C232.836 153.396 231.17 152.983 229.772 152.156C228.383 151.321 227.309 150.149 226.551 148.641C225.801 147.124 225.426 145.347 225.426 143.31C225.426 141.298 225.801 139.526 226.551 137.991C227.309 136.457 228.366 135.26 229.721 134.399C231.085 133.538 232.679 133.108 234.502 133.108C235.61 133.108 236.684 133.291 237.724 133.658C238.764 134.024 239.697 134.599 240.524 135.384C241.35 136.168 242.002 137.186 242.48 138.439C242.957 139.683 243.196 141.196 243.196 142.977V144.332H227.586V141.469H239.45C239.45 140.463 239.245 139.572 238.836 138.797C238.427 138.013 237.852 137.395 237.11 136.943C236.377 136.491 235.517 136.266 234.528 136.266C233.454 136.266 232.517 136.53 231.716 137.058C230.923 137.578 230.309 138.26 229.875 139.104C229.449 139.939 229.235 140.847 229.235 141.827V144.064C229.235 145.376 229.466 146.493 229.926 147.413C230.395 148.334 231.047 149.037 231.882 149.523C232.717 150 233.693 150.239 234.809 150.239C235.534 150.239 236.194 150.136 236.791 149.932C237.387 149.719 237.903 149.403 238.338 148.986C238.772 148.568 239.105 148.053 239.335 147.439L242.953 148.091C242.663 149.156 242.143 150.089 241.393 150.891C240.652 151.683 239.718 152.301 238.593 152.744C237.477 153.179 236.203 153.396 234.771 153.396ZM247.744 153V126.818H251.566V136.547H251.796C252.018 136.138 252.337 135.665 252.755 135.128C253.173 134.591 253.752 134.122 254.494 133.722C255.235 133.312 256.215 133.108 257.434 133.108C259.019 133.108 260.434 133.509 261.678 134.31C262.923 135.111 263.898 136.266 264.606 137.774C265.322 139.283 265.68 141.098 265.68 143.22C265.68 145.342 265.326 147.162 264.619 148.679C263.911 150.187 262.94 151.351 261.704 152.169C260.468 152.979 259.058 153.384 257.472 153.384C256.279 153.384 255.303 153.183 254.545 152.783C253.795 152.382 253.207 151.913 252.781 151.376C252.354 150.839 252.026 150.362 251.796 149.945H251.477V153H247.744ZM251.489 143.182C251.489 144.562 251.69 145.773 252.09 146.812C252.491 147.852 253.07 148.666 253.829 149.254C254.587 149.834 255.516 150.124 256.616 150.124C257.758 150.124 258.712 149.821 259.479 149.216C260.246 148.602 260.826 147.771 261.218 146.723C261.619 145.675 261.819 144.494 261.819 143.182C261.819 141.886 261.623 140.723 261.231 139.692C260.847 138.661 260.268 137.847 259.492 137.25C258.725 136.653 257.766 136.355 256.616 136.355C255.508 136.355 254.57 136.641 253.803 137.212C253.045 137.783 252.469 138.58 252.077 139.602C251.685 140.625 251.489 141.818 251.489 143.182ZM288.282 153H279.806V126.818H288.55C291.116 126.818 293.319 127.342 295.16 128.391C297.001 129.43 298.411 130.926 299.391 132.878C300.38 134.821 300.874 137.152 300.874 139.871C300.874 142.598 300.376 144.942 299.379 146.902C298.39 148.862 296.958 150.371 295.083 151.428C293.208 152.476 290.941 153 288.282 153ZM283.756 149.548H288.065C290.059 149.548 291.717 149.173 293.038 148.423C294.359 147.665 295.347 146.57 296.004 145.138C296.66 143.697 296.988 141.942 296.988 139.871C296.988 137.817 296.66 136.074 296.004 134.642C295.356 133.21 294.388 132.124 293.102 131.382C291.815 130.641 290.217 130.27 288.308 130.27H283.756V149.548ZM313.943 153.396C312.008 153.396 310.342 152.983 308.944 152.156C307.555 151.321 306.481 150.149 305.723 148.641C304.973 147.124 304.598 145.347 304.598 143.31C304.598 141.298 304.973 139.526 305.723 137.991C306.481 136.457 307.538 135.26 308.893 134.399C310.257 133.538 311.85 133.108 313.674 133.108C314.782 133.108 315.856 133.291 316.896 133.658C317.936 134.024 318.869 134.599 319.696 135.384C320.522 136.168 321.174 137.186 321.652 138.439C322.129 139.683 322.368 141.196 322.368 142.977V144.332H306.758V141.469H318.622C318.622 140.463 318.417 139.572 318.008 138.797C317.599 138.013 317.024 137.395 316.282 136.943C315.549 136.491 314.689 136.266 313.7 136.266C312.626 136.266 311.689 136.53 310.887 137.058C310.095 137.578 309.481 138.26 309.047 139.104C308.62 139.939 308.407 140.847 308.407 141.827V144.064C308.407 145.376 308.637 146.493 309.098 147.413C309.566 148.334 310.218 149.037 311.054 149.523C311.889 150 312.865 150.239 313.981 150.239C314.706 150.239 315.366 150.136 315.963 149.932C316.559 149.719 317.075 149.403 317.51 148.986C317.944 148.568 318.277 148.053 318.507 147.439L322.125 148.091C321.835 149.156 321.315 150.089 320.565 150.891C319.824 151.683 318.89 152.301 317.765 152.744C316.649 153.179 315.375 153.396 313.943 153.396ZM342.844 133.364L335.724 153H331.633L324.499 133.364H328.603L333.576 148.474H333.781L338.741 133.364H342.844Z" fill="#FF7D45"/>
</g>
</g>
<defs>
<filter id="filter0_b_106_171" x="31.0092" y="97.8182" width="340.835" height="84.5781" filterUnits="userSpaceOnUse" color-interpolation-filters="sRGB">
<feFlood flood-opacity="0" result="BackgroundImageFix"/>
<feGaussianBlur in="BackgroundImageFix" stdDeviation="14.5"/>
<feComposite in2="SourceAlpha" operator="in" result="effect1_backgroundBlur_106_171"/>
<feBlend mode="normal" in="SourceGraphic" in2="effect1_backgroundBlur_106_171" result="shape"/>
</filter>
<clipPath id="clip0_106_171">
<rect x="6.10352e-05" width="400" height="261" rx="8" fill="white"/>
</clipPath>
</defs>
</svg>
