<svg viewBox="0 0 400 261" fill="none" xmlns="http://www.w3.org/2000/svg">
<g clip-path="url(#clip0_104_160)">
<path d="M400 0H3.05176e-05V261H400V0Z" fill="#F0DB4F"/>
<path d="M255.778 261C256.711 231.463 257.6 201.927 275.111 190.443C292.578 178.916 326.622 185.397 350.222 176.61C373.822 167.866 386.889 143.854 400 119.842V261H255.778Z" fill="#323330"/>
<path d="M144.222 0C140.444 24.708 136.711 49.416 124.889 70.557C113.111 91.7415 93.2889 109.359 71.1111 120.539C48.9334 131.718 24.4889 136.46 3.05176e-05 141.158V0H144.222Z" fill="#323330"/>
<path d="M270.113 238.364L273.352 247.841H273.482L276.721 238.364H278.619L274.431 250H272.403L268.215 238.364H270.113ZM280.163 250V241.273H281.862V250H280.163ZM281.021 239.926C280.725 239.926 280.472 239.828 280.259 239.631C280.051 239.43 279.947 239.191 279.947 238.915C279.947 238.634 280.051 238.396 280.259 238.199C280.472 237.998 280.725 237.898 281.021 237.898C281.316 237.898 281.568 237.998 281.777 238.199C281.989 238.396 282.095 238.634 282.095 238.915C282.095 239.191 281.989 239.43 281.777 239.631C281.568 239.828 281.316 239.926 281.021 239.926ZM287.909 250.176C287.049 250.176 286.308 249.992 285.687 249.625C285.07 249.254 284.592 248.733 284.255 248.062C283.922 247.388 283.755 246.598 283.755 245.693C283.755 244.799 283.922 244.011 284.255 243.33C284.592 242.648 285.062 242.116 285.664 241.733C286.27 241.35 286.979 241.159 287.789 241.159C288.282 241.159 288.759 241.241 289.221 241.403C289.683 241.566 290.098 241.822 290.465 242.17C290.833 242.519 291.123 242.972 291.335 243.528C291.547 244.081 291.653 244.754 291.653 245.545V246.148H284.715V244.875H289.988C289.988 244.428 289.897 244.032 289.715 243.688C289.534 243.339 289.278 243.064 288.948 242.864C288.623 242.663 288.24 242.562 287.801 242.562C287.323 242.562 286.907 242.68 286.551 242.915C286.198 243.146 285.926 243.449 285.732 243.824C285.543 244.195 285.448 244.598 285.448 245.034V246.028C285.448 246.612 285.551 247.108 285.755 247.517C285.964 247.926 286.253 248.239 286.625 248.455C286.996 248.667 287.429 248.773 287.926 248.773C288.248 248.773 288.541 248.727 288.806 248.636C289.072 248.542 289.301 248.402 289.494 248.216C289.687 248.03 289.835 247.801 289.937 247.528L291.545 247.818C291.416 248.292 291.185 248.706 290.852 249.062C290.522 249.415 290.107 249.689 289.607 249.886C289.111 250.08 288.545 250.176 287.909 250.176ZM295.414 250L292.846 241.273H294.602L296.312 247.682H296.397L298.113 241.273H299.869L301.573 247.653H301.659L303.357 241.273H305.113L302.551 250H300.818L299.045 243.699H298.914L297.142 250H295.414ZM320.761 242.148H318.988C318.92 241.769 318.793 241.436 318.607 241.148C318.422 240.86 318.195 240.616 317.926 240.415C317.657 240.214 317.356 240.062 317.022 239.96C316.693 239.858 316.342 239.807 315.971 239.807C315.301 239.807 314.7 239.975 314.17 240.312C313.643 240.65 313.227 241.144 312.92 241.795C312.617 242.447 312.465 243.242 312.465 244.182C312.465 245.129 312.617 245.928 312.92 246.58C313.227 247.231 313.645 247.723 314.176 248.057C314.706 248.39 315.303 248.557 315.965 248.557C316.333 248.557 316.681 248.508 317.011 248.409C317.344 248.307 317.645 248.157 317.914 247.96C318.183 247.763 318.411 247.523 318.596 247.239C318.786 246.951 318.916 246.621 318.988 246.25L320.761 246.256C320.666 246.828 320.482 247.354 320.21 247.835C319.941 248.312 319.594 248.725 319.17 249.074C318.75 249.419 318.268 249.686 317.727 249.875C317.185 250.064 316.594 250.159 315.954 250.159C314.947 250.159 314.049 249.92 313.261 249.443C312.473 248.962 311.852 248.275 311.397 247.381C310.947 246.487 310.721 245.42 310.721 244.182C310.721 242.939 310.948 241.873 311.403 240.983C311.857 240.089 312.479 239.403 313.267 238.926C314.054 238.445 314.95 238.205 315.954 238.205C316.572 238.205 317.147 238.294 317.681 238.472C318.219 238.646 318.702 238.903 319.13 239.244C319.558 239.581 319.912 239.994 320.193 240.483C320.473 240.968 320.662 241.523 320.761 242.148ZM326.402 250.176C325.583 250.176 324.869 249.989 324.259 249.614C323.65 249.239 323.176 248.714 322.839 248.04C322.502 247.366 322.333 246.578 322.333 245.676C322.333 244.771 322.502 243.979 322.839 243.301C323.176 242.623 323.65 242.097 324.259 241.722C324.869 241.347 325.583 241.159 326.402 241.159C327.22 241.159 327.934 241.347 328.544 241.722C329.153 242.097 329.627 242.623 329.964 243.301C330.301 243.979 330.47 244.771 330.47 245.676C330.47 246.578 330.301 247.366 329.964 248.04C329.627 248.714 329.153 249.239 328.544 249.614C327.934 249.989 327.22 250.176 326.402 250.176ZM326.407 248.75C326.938 248.75 327.377 248.61 327.725 248.33C328.074 248.049 328.331 247.676 328.498 247.21C328.669 246.744 328.754 246.231 328.754 245.67C328.754 245.114 328.669 244.602 328.498 244.136C328.331 243.667 328.074 243.29 327.725 243.006C327.377 242.722 326.938 242.58 326.407 242.58C325.873 242.58 325.43 242.722 325.078 243.006C324.729 243.29 324.47 243.667 324.299 244.136C324.133 244.602 324.049 245.114 324.049 245.67C324.049 246.231 324.133 246.744 324.299 247.21C324.47 247.676 324.729 248.049 325.078 248.33C325.43 248.61 325.873 248.75 326.407 248.75ZM337.894 246.381V241.273H339.599V250H337.929V248.489H337.838C337.637 248.955 337.315 249.343 336.872 249.653C336.432 249.96 335.885 250.114 335.23 250.114C334.669 250.114 334.173 249.991 333.741 249.744C333.313 249.494 332.976 249.125 332.73 248.636C332.487 248.148 332.366 247.544 332.366 246.824V241.273H334.065V246.619C334.065 247.214 334.23 247.687 334.559 248.04C334.889 248.392 335.317 248.568 335.843 248.568C336.161 248.568 336.478 248.489 336.792 248.33C337.11 248.17 337.374 247.93 337.582 247.608C337.794 247.286 337.898 246.877 337.894 246.381ZM341.882 250V241.273H343.524V242.659H343.615C343.774 242.189 344.054 241.82 344.456 241.551C344.861 241.278 345.319 241.142 345.831 241.142C345.937 241.142 346.062 241.146 346.206 241.153C346.353 241.161 346.469 241.17 346.552 241.182V242.807C346.484 242.788 346.363 242.767 346.188 242.744C346.014 242.718 345.84 242.705 345.666 242.705C345.264 242.705 344.906 242.79 344.592 242.96C344.281 243.127 344.035 243.36 343.853 243.659C343.671 243.955 343.581 244.292 343.581 244.67V250H341.882ZM354.562 243.403L353.022 243.676C352.958 243.479 352.856 243.292 352.715 243.114C352.579 242.936 352.393 242.79 352.159 242.676C351.924 242.562 351.63 242.506 351.278 242.506C350.797 242.506 350.395 242.614 350.073 242.83C349.751 243.042 349.59 243.316 349.59 243.653C349.59 243.945 349.698 244.18 349.914 244.358C350.13 244.536 350.479 244.682 350.96 244.795L352.346 245.114C353.149 245.299 353.748 245.585 354.142 245.972C354.536 246.358 354.732 246.86 354.732 247.477C354.732 248 354.581 248.466 354.278 248.875C353.979 249.28 353.56 249.598 353.022 249.83C352.488 250.061 351.869 250.176 351.164 250.176C350.187 250.176 349.39 249.968 348.772 249.551C348.155 249.131 347.776 248.534 347.636 247.761L349.278 247.511C349.38 247.939 349.59 248.263 349.909 248.483C350.227 248.699 350.642 248.807 351.153 248.807C351.71 248.807 352.155 248.691 352.488 248.46C352.822 248.225 352.988 247.939 352.988 247.602C352.988 247.33 352.886 247.1 352.681 246.915C352.481 246.729 352.172 246.589 351.755 246.494L350.278 246.17C349.464 245.985 348.861 245.689 348.471 245.284C348.085 244.879 347.892 244.366 347.892 243.744C347.892 243.229 348.036 242.778 348.323 242.392C348.611 242.006 349.009 241.705 349.517 241.489C350.024 241.269 350.606 241.159 351.261 241.159C352.204 241.159 352.947 241.364 353.488 241.773C354.03 242.178 354.388 242.722 354.562 243.403ZM360.362 250.176C359.502 250.176 358.761 249.992 358.14 249.625C357.523 249.254 357.045 248.733 356.708 248.062C356.375 247.388 356.208 246.598 356.208 245.693C356.208 244.799 356.375 244.011 356.708 243.33C357.045 242.648 357.515 242.116 358.117 241.733C358.724 241.35 359.432 241.159 360.242 241.159C360.735 241.159 361.212 241.241 361.674 241.403C362.136 241.566 362.551 241.822 362.919 242.17C363.286 242.519 363.576 242.972 363.788 243.528C364 244.081 364.106 244.754 364.106 245.545V246.148H357.169V244.875H362.441C362.441 244.428 362.35 244.032 362.169 243.688C361.987 243.339 361.731 243.064 361.402 242.864C361.076 242.663 360.693 242.562 360.254 242.562C359.777 242.562 359.36 242.68 359.004 242.915C358.652 243.146 358.379 243.449 358.186 243.824C357.996 244.195 357.902 244.598 357.902 245.034V246.028C357.902 246.612 358.004 247.108 358.208 247.517C358.417 247.926 358.706 248.239 359.078 248.455C359.449 248.667 359.883 248.773 360.379 248.773C360.701 248.773 360.994 248.727 361.259 248.636C361.525 248.542 361.754 248.402 361.947 248.216C362.14 248.03 362.288 247.801 362.39 247.528L363.998 247.818C363.869 248.292 363.638 248.706 363.305 249.062C362.975 249.415 362.561 249.689 362.061 249.886C361.564 250.08 360.998 250.176 360.362 250.176ZM383.657 250.21L382.634 249.193L386.186 245.648H371.083V244.17H386.186L382.634 240.619L383.657 239.608L388.958 244.909L383.657 250.21Z" fill="#F0DB4F"/>
<g filter="url(#filter0_b_104_160)">
<path d="M118.243 126.818V153H114.293V126.818H118.243ZM127.512 141.341V153H123.689V133.364H127.358V136.56H127.601C128.053 135.52 128.76 134.685 129.723 134.054C130.695 133.423 131.918 133.108 133.392 133.108C134.73 133.108 135.902 133.389 136.908 133.952C137.914 134.506 138.694 135.332 139.247 136.432C139.801 137.531 140.078 138.891 140.078 140.51V153H136.256V140.97C136.256 139.547 135.885 138.435 135.144 137.634C134.402 136.824 133.384 136.419 132.088 136.419C131.202 136.419 130.414 136.611 129.723 136.994C129.042 137.378 128.5 137.94 128.1 138.682C127.708 139.415 127.512 140.301 127.512 141.341ZM154.371 133.364V136.432H143.645V133.364H154.371ZM146.522 128.659H150.344V147.234C150.344 147.976 150.455 148.534 150.676 148.909C150.898 149.276 151.184 149.527 151.533 149.663C151.891 149.791 152.279 149.855 152.696 149.855C153.003 149.855 153.272 149.834 153.502 149.791C153.732 149.749 153.911 149.714 154.039 149.689L154.729 152.847C154.507 152.932 154.192 153.017 153.783 153.102C153.374 153.196 152.863 153.247 152.249 153.256C151.243 153.273 150.306 153.094 149.436 152.719C148.567 152.344 147.864 151.764 147.327 150.98C146.79 150.196 146.522 149.212 146.522 148.027V128.659ZM158.599 153V133.364H162.294V136.483H162.499C162.857 135.426 163.487 134.595 164.391 133.99C165.303 133.376 166.334 133.07 167.484 133.07C167.723 133.07 168.004 133.078 168.328 133.095C168.66 133.112 168.92 133.134 169.108 133.159V136.815C168.955 136.773 168.682 136.726 168.29 136.675C167.898 136.615 167.506 136.585 167.114 136.585C166.21 136.585 165.405 136.777 164.697 137.161C163.999 137.536 163.445 138.06 163.035 138.733C162.626 139.398 162.422 140.156 162.422 141.009V153H158.599ZM179.984 153.396C178.143 153.396 176.537 152.974 175.164 152.131C173.792 151.287 172.727 150.107 171.968 148.589C171.21 147.072 170.831 145.3 170.831 143.271C170.831 141.234 171.21 139.453 171.968 137.928C172.727 136.402 173.792 135.217 175.164 134.374C176.537 133.53 178.143 133.108 179.984 133.108C181.825 133.108 183.431 133.53 184.804 134.374C186.176 135.217 187.241 136.402 188 137.928C188.758 139.453 189.137 141.234 189.137 143.271C189.137 145.3 188.758 147.072 188 148.589C187.241 150.107 186.176 151.287 184.804 152.131C183.431 152.974 181.825 153.396 179.984 153.396ZM179.997 150.188C181.19 150.188 182.179 149.872 182.963 149.241C183.747 148.611 184.326 147.771 184.701 146.723C185.085 145.675 185.277 144.52 185.277 143.259C185.277 142.006 185.085 140.855 184.701 139.807C184.326 138.75 183.747 137.902 182.963 137.263C182.179 136.624 181.19 136.304 179.997 136.304C178.795 136.304 177.798 136.624 177.005 137.263C176.221 137.902 175.637 138.75 175.254 139.807C174.879 140.855 174.691 142.006 174.691 143.259C174.691 144.52 174.879 145.675 175.254 146.723C175.637 147.771 176.221 148.611 177.005 149.241C177.798 149.872 178.795 150.188 179.997 150.188ZM212.098 133.364V136.432H201.372V133.364H212.098ZM204.248 128.659H208.071V147.234C208.071 147.976 208.181 148.534 208.403 148.909C208.625 149.276 208.91 149.527 209.26 149.663C209.618 149.791 210.005 149.855 210.423 149.855C210.73 149.855 210.998 149.834 211.228 149.791C211.458 149.749 211.637 149.714 211.765 149.689L212.456 152.847C212.234 152.932 211.919 153.017 211.51 153.102C211.1 153.196 210.589 153.247 209.975 153.256C208.97 153.273 208.032 153.094 207.163 152.719C206.294 152.344 205.591 151.764 205.054 150.98C204.517 150.196 204.248 149.212 204.248 148.027V128.659ZM224.386 153.396C222.545 153.396 220.939 152.974 219.567 152.131C218.195 151.287 217.129 150.107 216.371 148.589C215.612 147.072 215.233 145.3 215.233 143.271C215.233 141.234 215.612 139.453 216.371 137.928C217.129 136.402 218.195 135.217 219.567 134.374C220.939 133.53 222.545 133.108 224.386 133.108C226.227 133.108 227.834 133.53 229.206 134.374C230.578 135.217 231.643 136.402 232.402 137.928C233.16 139.453 233.54 141.234 233.54 143.271C233.54 145.3 233.16 147.072 232.402 148.589C231.643 150.107 230.578 151.287 229.206 152.131C227.834 152.974 226.227 153.396 224.386 153.396ZM224.399 150.188C225.592 150.188 226.581 149.872 227.365 149.241C228.149 148.611 228.729 147.771 229.104 146.723C229.487 145.675 229.679 144.52 229.679 143.259C229.679 142.006 229.487 140.855 229.104 139.807C228.729 138.75 228.149 137.902 227.365 137.263C226.581 136.624 225.592 136.304 224.399 136.304C223.197 136.304 222.2 136.624 221.408 137.263C220.624 137.902 220.04 138.75 219.656 139.807C219.281 140.855 219.094 142.006 219.094 143.259C219.094 144.52 219.281 145.675 219.656 146.723C220.04 147.771 220.624 148.611 221.408 149.241C222.2 149.872 223.197 150.188 224.399 150.188ZM257.817 126.818H261.754V145.381C261.754 147.06 261.422 148.496 260.757 149.689C260.101 150.882 259.176 151.794 257.983 152.425C256.79 153.047 255.392 153.358 253.79 153.358C252.315 153.358 250.99 153.089 249.814 152.553C248.646 152.016 247.722 151.236 247.04 150.213C246.366 149.182 246.03 147.929 246.03 146.455H249.955C249.955 147.179 250.121 147.805 250.453 148.334C250.794 148.862 251.259 149.276 251.847 149.574C252.443 149.864 253.125 150.009 253.892 150.009C254.727 150.009 255.435 149.834 256.014 149.484C256.602 149.126 257.05 148.602 257.357 147.912C257.663 147.222 257.817 146.378 257.817 145.381V126.818ZM281.784 133.696C281.647 132.486 281.085 131.548 280.096 130.884C279.108 130.21 277.863 129.874 276.363 129.874C275.289 129.874 274.36 130.044 273.576 130.385C272.792 130.717 272.183 131.178 271.748 131.766C271.322 132.345 271.109 133.006 271.109 133.747C271.109 134.369 271.254 134.906 271.544 135.358C271.842 135.81 272.23 136.189 272.707 136.496C273.193 136.794 273.713 137.045 274.267 137.25C274.821 137.446 275.353 137.608 275.865 137.736L278.422 138.401C279.257 138.605 280.113 138.882 280.991 139.232C281.869 139.581 282.683 140.041 283.433 140.612C284.183 141.183 284.788 141.891 285.248 142.734C285.717 143.578 285.951 144.588 285.951 145.764C285.951 147.247 285.568 148.564 284.801 149.714C284.042 150.865 282.939 151.773 281.49 152.438C280.049 153.102 278.306 153.435 276.261 153.435C274.301 153.435 272.605 153.124 271.173 152.501C269.741 151.879 268.62 150.997 267.811 149.855C267.001 148.705 266.554 147.341 266.468 145.764H270.431C270.508 146.71 270.815 147.499 271.352 148.129C271.897 148.751 272.592 149.216 273.436 149.523C274.288 149.821 275.221 149.97 276.235 149.97C277.352 149.97 278.345 149.795 279.214 149.446C280.092 149.088 280.782 148.594 281.285 147.963C281.788 147.324 282.039 146.578 282.039 145.726C282.039 144.95 281.818 144.315 281.375 143.821C280.94 143.327 280.348 142.918 279.598 142.594C278.856 142.27 278.017 141.984 277.079 141.737L273.985 140.893C271.889 140.322 270.227 139.483 269 138.375C267.781 137.267 267.172 135.801 267.172 133.977C267.172 132.469 267.581 131.152 268.399 130.027C269.217 128.902 270.325 128.028 271.723 127.406C273.12 126.776 274.697 126.46 276.453 126.46C278.225 126.46 279.789 126.771 281.145 127.393C282.508 128.016 283.582 128.872 284.366 129.963C285.15 131.045 285.559 132.29 285.593 133.696H281.784Z" fill="#323330"/>
</g>
</g>
<defs>
<filter id="filter0_b_104_160" x="85.293" y="97.4602" width="229.658" height="84.9744" filterUnits="userSpaceOnUse" color-interpolation-filters="sRGB">
<feFlood flood-opacity="0" result="BackgroundImageFix"/>
<feGaussianBlur in="BackgroundImageFix" stdDeviation="14.5"/>
<feComposite in2="SourceAlpha" operator="in" result="effect1_backgroundBlur_104_160"/>
<feBlend mode="normal" in="SourceGraphic" in2="effect1_backgroundBlur_104_160" result="shape"/>
</filter>
<clipPath id="clip0_104_160">
<rect x="3.05176e-05" width="400" height="261" rx="8" fill="white"/>
</clipPath>
</defs>
</svg>
